<?xml version="1.0" encoding="utf-8"?>
<!-- Generator: Adobe Illustrator 27.7.0, SVG Export Plug-In . SVG Version: 6.00 Build 0)  -->
<svg version="1.1" id="Layer_1" xmlns="http://www.w3.org/2000/svg" xmlns:xlink="http://www.w3.org/1999/xlink" x="0px" y="0px"
	 viewBox="0 0 364 256" style="enable-background:new 0 0 364 256;" xml:space="preserve">
<style type="text/css">
	.st0{fill:none;}
	.st1{fill:#FFFFFF;stroke:#000000;stroke-width:15;stroke-linecap:round;stroke-miterlimit:10;}
	.st2{fill:none;stroke:#000000;stroke-width:15;stroke-linecap:round;stroke-miterlimit:10;}
	.st3{fill:#FFFFFF;stroke:#000000;stroke-width:15;stroke-miterlimit:10;}
</style>
<path class="st0" d="M312,128"/>
<path class="st1" d="M289.5,128.5C266,27.32,182.39,7.5,144.5,7.5L54.37,7.41c-2.32,0-3.42,2.86-1.69,4.4
	C67.17,24.77,81.5,67.59,81.5,128.5"/>
<path class="st1" d="M289.5,127.5c-23.5,101.18-107.11,121-145,121l-90.13,0.09c-2.32,0-3.42-2.86-1.69-4.4
	C67.17,231.23,81.5,188.41,81.5,127.5"/>
<path class="st2" d="M94.5,128.5"/>
<path class="st2" d="M299,128.72"/>
<path class="st2" d="M8.5,248.5c0,0,38-33,38.5-121S8.5,7.5,8.5,7.5"/>
<circle class="st3" cx="325.5" cy="128.5" r="30"/>
</svg>
