<?xml version="1.0" encoding="utf-8"?>
<!-- Generator: Adobe Illustrator 27.7.0, SVG Export Plug-In . SVG Version: 6.00 Build 0)  -->
<svg version="1.1" id="Layer_1" xmlns="http://www.w3.org/2000/svg" xmlns:xlink="http://www.w3.org/1999/xlink" x="0px" y="0px"
	 viewBox="0 0 296 256" style="enable-background:new 0 0 296 256;" xml:space="preserve">
<style type="text/css">
	.st0{fill:none;}
	.st1{fill:#FFFFFF;stroke:#000000;stroke-width:15;stroke-linecap:round;stroke-miterlimit:10;}
	.st2{fill:none;stroke:#000000;stroke-width:15;stroke-linecap:round;stroke-miterlimit:10;}
</style>
<path class="st0" d="M276,128"/>
<path class="st1" d="M288.5,128.5C265,27.32,181.39,7.5,143.5,7.5L53.37,7.41c-2.32,0-3.42,2.86-1.69,4.4
	C66.17,24.77,80.5,67.59,80.5,128.5"/>
<path class="st1" d="M288.5,127.5c-23.5,101.18-107.11,121-145,121l-90.13,0.09c-2.32,0-3.42-2.86-1.69-4.4
	C66.17,231.23,80.5,188.41,80.5,127.5"/>
<path class="st2" d="M58.5,128.5"/>
<path class="st2" d="M263,128.72"/>
<path class="st2" d="M7.5,248.5c0,0,38-33,38.5-121S7.5,7.5,7.5,7.5"/>
</svg>
